<?xml version="1.0" encoding="UTF-8" standalone="no"?>
<svg
   xmlns:dc="http://purl.org/dc/elements/1.1/"
   xmlns:cc="http://creativecommons.org/ns#"
   xmlns:rdf="http://www.w3.org/1999/02/22-rdf-syntax-ns#"
   xmlns:svg="http://www.w3.org/2000/svg"
   xmlns="http://www.w3.org/2000/svg"
   xmlns:sodipodi="http://sodipodi.sourceforge.net/DTD/sodipodi-0.dtd"
   xmlns:inkscape="http://www.inkscape.org/namespaces/inkscape"
   width="189.02"
   height="49.920876"
   id="svg2"
   version="1.1"
   inkscape:version="0.48.4 r9939"
   sodipodi:docname="m_logo.svg">
  <metadata
     id="metadata10">
    <rdf:RDF>
      <cc:Work
         rdf:about="">
        <dc:format>image/svg+xml</dc:format>
        <dc:type
           rdf:resource="http://purl.org/dc/dcmitype/StillImage" />
        <dc:title></dc:title>
      </cc:Work>
    </rdf:RDF>
  </metadata>
  <defs
     id="defs8" />
  <sodipodi:namedview
     pagecolor="#ffffff"
     bordercolor="#666666"
     borderopacity="1"
     objecttolerance="10"
     gridtolerance="10"
     guidetolerance="10"
     inkscape:pageopacity="0"
     inkscape:pageshadow="2"
     inkscape:window-width="1264"
     inkscape:window-height="928"
     id="namedview6"
     showgrid="false"
     inkscape:zoom="1.6296296"
     inkscape:cx="209.29075"
     inkscape:cy="-44.793739"
     inkscape:window-x="0"
     inkscape:window-y="0"
     inkscape:window-maximized="0"
     inkscape:current-layer="svg2"
     showguides="true"
     inkscape:guide-bbox="true"
     fit-margin-top="0"
     fit-margin-left="0"
     fit-margin-right="0"
     fit-margin-bottom="0" />
  <path
     d="m 184.34,14.07 c -1.07,0 -1.86,0.21 -2.38,0.63 -0.53,0.42 -0.79,0.93 -0.79,1.52 0,0.59 0.19,1.05 0.56,1.39 0.37,0.34 0.97,0.68 1.8,1.03 0,0 1.79,0.69 1.79,0.69 2.46,0.96 3.7,2.39 3.7,4.29 0,1.3 -0.51,2.33 -1.54,3.08 -1.01,0.75 -2.38,1.12 -4.1,1.12 -1.72,0 -3.37,-0.5 -4.97,-1.5 0.04,-0.58 0.33,-1.08 0.85,-1.5 1.66,0.92 3.04,1.38 4.14,1.38 1.1,0 1.95,-0.22 2.56,-0.67 0.6,-0.45 0.91,-1.04 0.93,-1.76 0,-1.1 -0.75,-1.93 -2.27,-2.49 0,0 -1.72,-0.66 -1.72,-0.66 -2.59,-0.98 -3.88,-2.36 -3.88,-4.15 0,-1.24 0.48,-2.23 1.45,-2.97 0.97,-0.74 2.2,-1.11 3.7,-1.11 1.49,0 2.96,0.32 4.39,0.96 0,0.66 -0.21,1.2 -0.63,1.62 -1.34,-0.6 -2.53,-0.9 -3.59,-0.9 z m -10.44,8.05 c 0,0 1.21,2.7 1.21,2.7 0.53,1.18 1.01,1.91 1.46,2.19 -0.31,0.42 -0.72,0.63 -1.25,0.63 -0.52,0 -0.89,-0.12 -1.1,-0.36 -0.21,-0.24 -0.44,-0.63 -0.68,-1.17 0,0 -1.46,-3.15 -1.46,-3.15 -0.4,-0.9 -0.81,-1.5 -1.21,-1.8 -0.4,-0.3 -0.93,-0.45 -1.57,-0.45 -0.65,0 -1.33,0.03 -2.03,0.09 0,0 0,6.66 0,6.66 -0.27,0.06 -0.6,0.09 -1,0.09 -0.41,0 -0.75,-0.03 -1.03,-0.09 0,0 0,-21.89 0,-21.89 0,0 0.18,-0.18 0.18,-0.18 0,0 0.76,0 0.76,0 0.44,0 0.73,0.11 0.87,0.33 0.14,0.22 0.22,0.58 0.22,1.08 0,0 0,12.29 0,12.29 0,0 1.39,-0.09 1.39,-0.09 0.26,0 0.47,-0.13 0.64,-0.4 0,0 3.36,-4.89 3.36,-4.89 0.26,-0.38 0.5,-0.65 0.71,-0.81 0.21,-0.16 0.52,-0.24 0.94,-0.24 0.41,0 0.75,0.01 1.01,0.03 0,0 0.19,0.24 0.19,0.24 0,0 -3.97,5.67 -3.97,5.67 -0.27,0.37 -0.49,0.62 -0.67,0.76 0.71,0.14 1.29,0.42 1.74,0.84 0.46,0.42 0.89,1.06 1.29,1.92 z m -13.84,-4.18 c -0.25,0 -0.54,-0.03 -0.88,-0.09 0,-0.12 0,-0.33 0,-0.63 0,-0.3 -0.08,-0.69 -0.23,-1.18 -0.15,-0.49 -0.49,-0.95 -1.01,-1.37 -0.53,-0.42 -1.21,-0.63 -2.03,-0.63 -1.15,0 -2.08,0.54 -2.77,1.62 -0.7,1.08 -1.05,2.59 -1.05,4.52 0,1.93 0.34,3.39 1.03,4.37 0.69,0.98 1.62,1.47 2.82,1.47 1.19,0 2.53,-0.56 4.03,-1.68 0.56,0.36 0.9,0.8 1.03,1.32 -1.56,1.44 -3.32,2.16 -5.28,2.16 -1.95,0 -3.41,-0.74 -4.37,-2.22 -0.96,-1.48 -1.44,-3.38 -1.44,-5.7 0,-2.33 0.58,-4.16 1.76,-5.5 1.17,-1.34 2.6,-2.01 4.3,-2.01 0.91,0 1.72,0.15 2.44,0.45 0.71,0.3 1.26,0.67 1.65,1.11 0.74,0.92 1.12,1.82 1.12,2.69 0,0.87 -0.38,1.3 -1.12,1.3 z m -19.62,9.88 c -1.68,0 -3.06,-0.53 -4.13,-1.59 -1.42,-1.42 -2.12,-3.46 -2.12,-6.12 0,-2.67 0.7,-4.71 2.12,-6.13 1.07,-1.06 2.45,-1.59 4.13,-1.59 1.69,0 3.07,0.53 4.14,1.59 1.41,1.42 2.12,3.46 2.12,6.13 0,2.66 -0.71,4.7 -2.12,6.12 -1.07,1.06 -2.45,1.59 -4.14,1.59 z m 3.12,-12.05 c -0.65,-1.19 -1.69,-1.79 -3.12,-1.79 -1.42,0 -2.46,0.6 -3.12,1.79 -0.65,1.19 -0.98,2.64 -0.98,4.35 0,1.71 0.33,3.15 0.98,4.33 0.66,1.17 1.7,1.75 3.14,1.75 0.97,0 1.77,-0.31 2.42,-0.93 1.11,-1.1 1.67,-2.82 1.67,-5.16 0,-1.71 -0.33,-3.15 -0.99,-4.34 z m -15.83,-1.49 c 0,0 0,10.36 0,10.36 0,0.82 0.4,1.23 1.19,1.23 0,0 2.33,0 2.33,0 0.12,0.3 0.18,0.61 0.18,0.93 0,0.32 -0.01,0.52 -0.03,0.6 -0.95,0.12 -1.89,0.18 -2.83,0.18 -0.94,0 -1.65,-0.2 -2.14,-0.61 -0.48,-0.41 -0.73,-1 -0.73,-1.76 0,0 0,-10.93 0,-10.93 0,0 -2.08,0.03 -2.08,0.03 -0.07,-0.26 -0.1,-0.51 -0.1,-0.76 0,-0.25 0.03,-0.53 0.1,-0.83 0,0 2.08,0.03 2.08,0.03 0,0 0,-3.24 0,-3.24 0,-0.5 0.08,-0.86 0.23,-1.08 0.15,-0.22 0.45,-0.33 0.9,-0.33 0,0 0.72,0 0.72,0 0,0 0.18,0.18 0.18,0.18 0,0 0,4.5 0,4.5 0,0 3.85,-0.06 3.85,-0.06 0.06,0.3 0.09,0.57 0.09,0.81 0,0.24 -0.03,0.5 -0.09,0.78 0,0 -3.85,-0.03 -3.85,-0.03 z m -12.14,4.36 c 0,0 1.79,0.69 1.79,0.69 2.46,0.96 3.69,2.39 3.69,4.29 0,1.3 -0.51,2.33 -1.53,3.08 -1.02,0.75 -2.39,1.12 -4.1,1.12 -1.72,0 -3.38,-0.5 -4.97,-1.5 0.04,-0.58 0.32,-1.08 0.85,-1.5 1.65,0.92 3.03,1.38 4.13,1.38 1.1,0 1.96,-0.22 2.56,-0.67 0.61,-0.45 0.92,-1.04 0.94,-1.76 0,-1.1 -0.76,-1.93 -2.27,-2.49 0,0 -1.73,-0.66 -1.73,-0.66 -2.58,-0.98 -3.88,-2.36 -3.88,-4.15 0,-1.24 0.49,-2.23 1.46,-2.97 0.97,-0.74 2.2,-1.11 3.69,-1.11 1.5,0 2.96,0.32 4.4,0.96 0,0.66 -0.22,1.2 -0.64,1.62 -1.33,-0.6 -2.53,-0.9 -3.59,-0.9 -1.06,0 -1.85,0.21 -2.38,0.63 -0.52,0.42 -0.78,0.93 -0.78,1.52 0,0.59 0.18,1.05 0.56,1.39 0.37,0.34 0.97,0.68 1.8,1.03 z m -10.91,6.99 c -1.25,1.46 -2.73,2.19 -4.45,2.19 -1.72,0 -3.01,-0.68 -3.89,-2.04 -0.88,-1.36 -1.32,-3.25 -1.32,-5.67 0,-2.43 0.57,-4.3 1.71,-5.62 1.14,-1.32 2.39,-1.98 3.76,-1.98 1.36,0 2.71,0.42 4.04,1.26 0,0 0,-8.2 0,-8.2 0,0 0.18,-0.18 0.18,-0.18 0,0 0.73,0 0.73,0 0.44,0 0.74,0.11 0.88,0.33 0.14,0.22 0.21,0.58 0.21,1.08 0,0 0,16.52 0,16.52 0,1.66 0.28,2.76 0.85,3.3 -0.2,0.48 -0.53,0.83 -0.97,1.05 -0.91,-0.36 -1.48,-1.04 -1.73,-2.04 z m -0.15,-9.94 c -1.31,-0.92 -2.51,-1.38 -3.6,-1.38 -1.09,0 -2,0.5 -2.73,1.5 -0.73,1 -1.09,2.48 -1.09,4.43 0,1.95 0.32,3.41 0.96,4.36 0.63,0.95 1.43,1.42 2.4,1.42 0.73,0 1.46,-0.21 2.2,-0.64 0.74,-0.43 1.36,-1.02 1.86,-1.76 0,0 0,-7.93 0,-7.93 z M 85.58,27.82 c -1.68,0 -3.06,-0.53 -4.13,-1.59 -1.41,-1.42 -2.12,-3.46 -2.12,-6.12 0,-2.67 0.71,-4.71 2.12,-6.13 1.07,-1.06 2.45,-1.59 4.13,-1.59 1.69,0 3.07,0.53 4.14,1.59 1.41,1.42 2.12,3.46 2.12,6.13 0,2.66 -0.71,4.7 -2.12,6.12 -1.07,1.06 -2.45,1.59 -4.14,1.59 z M 88.7,15.77 c -0.65,-1.19 -1.69,-1.79 -3.12,-1.79 -1.42,0 -2.46,0.6 -3.12,1.79 -0.65,1.19 -0.98,2.64 -0.98,4.35 0,1.71 0.33,3.15 0.98,4.33 0.66,1.17 1.7,1.75 3.14,1.75 0.97,0 1.78,-0.31 2.42,-0.93 1.11,-1.1 1.67,-2.82 1.67,-5.16 0,-1.71 -0.33,-3.15 -0.99,-4.34 z M 69.86,27.82 c -1.68,0 -3.06,-0.53 -4.13,-1.59 -1.42,-1.42 -2.12,-3.46 -2.12,-6.12 0,-2.67 0.7,-4.71 2.12,-6.13 1.07,-1.06 2.45,-1.59 4.13,-1.59 1.69,0 3.07,0.53 4.14,1.59 1.41,1.42 2.12,3.46 2.12,6.13 0,2.66 -0.71,4.7 -2.12,6.12 -1.07,1.06 -2.45,1.59 -4.14,1.59 z m 3.12,-12.05 c -0.65,-1.19 -1.69,-1.79 -3.12,-1.79 -1.42,0 -2.46,0.6 -3.12,1.79 -0.65,1.19 -0.98,2.64 -0.98,4.35 0,1.71 0.33,3.15 0.98,4.33 0.66,1.17 1.7,1.75 3.14,1.75 0.97,0 1.77,-0.31 2.42,-0.93 1.11,-1.1 1.67,-2.82 1.67,-5.16 0,-1.71 -0.33,-3.15 -0.99,-4.34 z M 58.35,27.58 c -0.35,0 -0.7,-0.03 -1.04,-0.09 0,0 -0.88,-12.73 -0.88,-12.73 -0.06,-0.84 -0.14,-2.7 -0.24,-5.58 0,0 -0.16,0 -0.16,0 0,0 -4.93,15.07 -4.93,15.07 -0.33,0.06 -0.69,0.09 -1.08,0.09 -0.39,0 -0.74,-0.03 -1.04,-0.09 0,0 -4.94,-15.07 -4.94,-15.07 0,0 -0.15,0 -0.15,0 -0.02,0.5 -0.06,1.43 -0.11,2.8 -0.05,1.38 -0.1,2.3 -0.14,2.78 0,0 -0.87,12.73 -0.87,12.73 -0.35,0.06 -0.71,0.09 -1.09,0.09 -0.39,0 -0.71,-0.05 -0.97,-0.15 0,0 1.6,-20.48 1.6,-20.48 0.34,-0.06 0.81,-0.09 1.41,-0.09 0.6,0 1.07,0.03 1.41,0.09 0,0 3.6,10.78 3.6,10.78 0.67,1.95 1.08,3.38 1.25,4.3 0,0 0.15,0 0.15,0 0.16,-0.92 0.57,-2.35 1.24,-4.3 0,0 3.6,-10.78 3.6,-10.78 0.39,-0.06 0.85,-0.09 1.4,-0.09 0.54,0 1.02,0.03 1.42,0.09 0,0 1.61,20.48 1.61,20.48 -0.35,0.1 -0.7,0.15 -1.05,0.15 z M 32.36,25.5 c 0,0 0,0 0,0 0,0 -0.01,0.01 -0.01,0.01 -0.02,0.04 -0.06,0.11 -0.12,0.22 -1.45,2.6 -3.58,4.68 -6.18,6.1 -1.33,0.77 -2.87,1.39 -4.63,1.71 0,0 0,0 0,0 -1.36,0.3 -2.79,0.47 -4.26,0.47 C 7.7,34.01 0,26.38 0,17 0,7.62 7.7,0 17.16,0 c 1.57,0 2.76,0.07 4.16,0.44 0.12,0.03 0.22,0.09 0.3,0.17 0,0 0.01,0 0.01,0.01 0.01,0 0.01,0.01 0.01,0.01 0.05,0.05 0.08,0.1 0.11,0.16 0.01,0.01 0.01,0.02 0.02,0.03 0.05,0.11 0.07,0.25 0.05,0.38 0,0.01 0,0.02 0,0.04 -0.01,0.01 -0.01,0.02 -0.01,0.03 -0.01,0.05 -0.04,0.1 -0.06,0.15 0,0 0,0.01 -0.01,0.01 -0.03,0.07 -3.75,6.7 -2.09,11.63 0.63,1.89 2,3.3 4.06,4.21 0.32,0.11 1.17,0.33 2.14,0.59 0.34,0.09 0.68,0.18 1.01,0.26 1.73,0.41 3.12,0.77 4.17,1.22 0.31,0.12 0.54,0.22 0.69,0.31 0.07,0.04 0.12,0.08 0.17,0.14 0.56,0.35 0.96,0.77 1.21,1.3 0.5,1.06 0.27,2.42 -0.74,4.4 0,0 0,0 0,0.01 z M 18.34,13.49 C 17.1,9.77 18.46,5.41 19.53,2.87 c -3,1.98 -7.18,5.43 -6.85,8.38 0.23,2.07 2.63,3.79 7.15,5.1 0.09,0.02 0.18,0.05 0.27,0.08 -0.79,-0.84 -1.38,-1.82 -1.76,-2.94 z m 3.63,4.85 C 21.17,18.14 20.33,17.91 19.44,17.65 14.34,16.17 11.61,14.07 11.31,11.4 10.86,7.31 16.41,3.24 19.24,1.44 18.59,1.38 17.93,1.36 17.16,1.36 8.45,1.36 1.37,8.37 1.37,17 c 0,8.63 7.08,15.64 15.79,15.64 1.37,0 2.68,-0.15 3.94,-0.42 2.95,-1.15 4.65,-2.74 5.05,-4.74 0.79,-3.91 -3.41,-8.35 -4.18,-9.14 z m 9.88,3.32 C 31.66,21.24 31.19,20.9 30.5,20.6 c -0.88,-0.32 -2.59,-0.79 -3.97,-1.16 -0.28,-0.06 -0.57,-0.13 -0.87,-0.2 -0.43,-0.1 -0.88,-0.2 -1.34,-0.31 1.62,1.99 3.85,5.46 3.18,8.81 -0.14,0.72 -0.41,1.39 -0.8,2.02 2.62,-1.95 4.11,-4.32 4.39,-4.81 0.02,-0.03 0.04,-0.06 0.05,-0.09 0.01,0 0.01,0 0.01,0 0,0 0,0 0,-0.01 0.78,-1.52 1.01,-2.54 0.7,-3.19 z m -6.9,-8.26 c -1.42,0 -2.57,-1.14 -2.57,-2.54 0,-1.41 1.15,-2.55 2.57,-2.55 1.42,0 2.57,1.14 2.57,2.55 0,1.4 -1.15,2.54 -2.57,2.54 z m 0,-3.73 c -0.66,0 -1.2,0.53 -1.2,1.19 0,0.65 0.54,1.18 1.2,1.18 0.66,0 1.2,-0.53 1.2,-1.18 0,-0.66 -0.54,-1.19 -1.2,-1.19 z"
     id="path4"
     inkscape:connector-curvature="0"
     style="fill:#ffffff;fill-rule:evenodd" />
  <g
     style="font-size:12px;font-style:normal;font-variant:normal;font-weight:normal;font-stretch:normal;line-height:125%;letter-spacing:0px;word-spacing:0px;fill:#ffffff;fill-opacity:1;stroke:none;font-family:Adobe Pi Std;-inkscape-font-specification:Adobe Pi Std"
     id="text2989">
    <path
       d="m 121.28323,47.340908 c 0.0667,0.012 0.13725,0.021 0.2115,0.027 0.0742,0.006 0.14775,0.009 0.2205,0.009 0.0735,0 0.1485,-0.003 0.225,-0.009 0.0765,-0.006 0.14549,-0.015 0.20699,-0.027 l 0,-5.219933 1.70398,0.012 c 0.012,-0.05949 0.021,-0.117493 0.027,-0.173998 0.006,-0.05649 0.009,-0.114493 0.009,-0.173997 0,-0.05899 -0.003,-0.114993 -0.009,-0.167998 -0.006,-0.05299 -0.015,-0.108993 -0.027,-0.167998 l -1.75198,0.024 c -0.0307,-0.215491 -0.0563,-0.423488 -0.0765,-0.623992 -0.0203,-0.200491 -0.0308,-0.396489 -0.0315,-0.587993 0.003,-0.356238 0.0872,-0.630734 0.25349,-0.823489 0.16625,-0.19274 0.39774,-0.290239 0.69449,-0.292496 0.17525,0.002 0.35575,0.02201 0.5415,0.06 0.18574,0.03801 0.36924,0.08201 0.55049,0.131998 0.0667,-0.07499 0.11924,-0.16799 0.1575,-0.278996 0.0382,-0.110991 0.0577,-0.221989 0.0585,-0.332996 -0.18226,-0.06824 -0.39975,-0.12674 -0.6525,-0.175498 -0.25275,-0.04874 -0.49124,-0.07424 -0.71549,-0.0765 -0.56499,0.01151 -0.99199,0.180507 -1.28098,0.506994 -0.289,0.326503 -0.434,0.741498 -0.43499,1.244984 0.001,0.181004 0.0107,0.377001 0.0285,0.587992 0.0177,0.211004 0.0362,0.431001 0.0555,0.659992 l -0.99599,-0.024 c -0.012,0.059 -0.021,0.115004 -0.027,0.167998 -0.006,0.053 -0.009,0.109004 -0.009,0.167998 0,0.0595 0.003,0.117503 0.009,0.173997 0.006,0.05651 0.015,0.114504 0.027,0.173998 l 1.03198,-0.012 z"
       style="font-weight:300;text-align:start;line-height:125%;writing-mode:lr-tb;text-anchor:start;font-family:Signika;-inkscape-font-specification:Signika Light;fill:#ffffff"
       id="path2985" />
    <path
       d="m 129.43493,44.400946 c 0.004,-0.48224 -0.058,-0.930734 -0.186,-1.345483 -0.128,-0.41474 -0.346,-0.782235 -0.65399,-1.102486 -0.42,-0.431988 -0.97199,-0.647985 -1.65598,-0.647991 -0.67399,6e-6 -1.22198,0.216003 -1.64398,0.647991 -0.30799,0.320251 -0.52599,0.687746 -0.65399,1.102486 -0.128,0.414749 -0.19,0.863243 -0.186,1.345483 -0.004,0.482246 0.058,0.93074 0.186,1.345483 0.128,0.414746 0.346,0.78224 0.65399,1.102485 0.42199,0.421995 0.96999,0.633992 1.64398,0.635992 0.68399,-0.002 1.23598,-0.213997 1.65598,-0.635992 0.30799,-0.320245 0.52599,-0.687739 0.65399,-1.102486 0.12799,-0.414742 0.18999,-0.863236 0.186,-1.345482 z m -4.05595,0 c -0.01,-0.614489 0.1025,-1.161481 0.336,-1.640979 0.23349,-0.479489 0.64549,-0.732485 1.23598,-0.75899 0.58524,0.02651 0.99573,0.279501 1.23148,0.75899 0.23575,0.479498 0.34925,1.02649 0.3405,1.640979 0.009,0.619244 -0.10475,1.165737 -0.34049,1.639479 -0.23576,0.473744 -0.64625,0.723241 -1.23149,0.74849 -0.59049,-0.02525 -1.00249,-0.274746 -1.23598,-0.74849 -0.2335,-0.473742 -0.3455,-1.020235 -0.336,-1.639479 z"
       style="font-weight:300;text-align:start;line-height:125%;writing-mode:lr-tb;text-anchor:start;font-family:Signika;-inkscape-font-specification:Signika Light;fill:#ffffff"
       id="path2987" />
    <path
       d="m 130.79737,41.868979 c 0.11249,0.102754 0.21149,0.257251 0.29699,0.463494 0.0855,0.206252 0.1305,0.459748 0.135,0.76049 l 0,4.247945 c 0.122,0.024 0.274,0.036 0.456,0.036 0.0787,0 0.15524,-0.003 0.22949,-0.009 0.0743,-0.006 0.14175,-0.015 0.2025,-0.027 l 0,-3.995949 c 0.11725,-0.276492 0.29374,-0.524488 0.52949,-0.74399 0.23575,-0.219492 0.54724,-0.335491 0.93449,-0.347995 0.134,-0.002 0.27399,0.002 0.42,0.012 0.0715,-0.117493 0.12349,-0.251491 0.15599,-0.401995 0.0325,-0.150492 0.0485,-0.29649 0.048,-0.437994 -0.1145,-0.01774 -0.2185,-0.03024 -0.31199,-0.0375 -0.0935,-0.0072 -0.1735,-0.01074 -0.24,-0.0105 -0.40675,0.0073 -0.74224,0.109755 -1.00649,0.307496 -0.26425,0.197753 -0.46474,0.44725 -0.60149,0.74849 -0.06,-0.259741 -0.162,-0.481238 -0.306,-0.664491 -0.144,-0.183242 -0.32999,-0.31774 -0.55799,-0.403495 -0.0865,0.05776 -0.1655,0.134254 -0.237,0.229497 -0.0715,0.09526 -0.12049,0.186753 -0.14699,0.274497 z"
       style="font-weight:300;text-align:start;line-height:125%;writing-mode:lr-tb;text-anchor:start;font-family:Signika;-inkscape-font-specification:Signika Light;fill:#ffffff"
       id="path2989" />
    <path
       d="m 143.14792,41.676981 c -0.014,-0.852483 -0.262,-1.493474 -0.74399,-1.922976 -0.482,-0.429486 -1.11399,-0.644483 -1.89597,-0.644991 -0.379,7.58e-4 -0.752,0.0053 -1.11899,0.0135 -0.367,0.0083 -0.75799,0.01576 -1.17298,0.0225 l -0.072,0.072 0,8.123895 c 0.0612,0.012 0.13074,0.021 0.20849,0.027 0.0777,0.006 0.15625,0.009 0.2355,0.009 0.0908,0 0.17625,-0.003 0.2565,-0.009 0.0802,-0.006 0.15074,-0.015 0.21149,-0.027 l 0,-3.08396 1.45199,0 c 0.79248,-0.0017 1.42747,-0.220244 1.90497,-0.655492 0.47749,-0.43524 0.72249,-1.076731 0.73499,-1.924475 z m -4.09195,-1.811977 c 0.231,0.0058 0.483,0.0093 0.75599,0.0105 0.273,0.0013 0.51299,0.0018 0.72,0.0015 0.64598,0.02326 1.08498,0.219755 1.31698,0.589493 0.23199,0.369752 0.34099,0.773246 0.32699,1.210484 0.014,0.42725 -0.095,0.829744 -0.32699,1.207485 -0.232,0.377749 -0.671,0.579246 -1.31698,0.604492 -0.16726,-2.46e-4 -0.39075,2.54e-4 -0.6705,0.0015 -0.27975,0.0013 -0.54824,0.0048 -0.80549,0.0105 z"
       style="font-weight:300;text-align:start;line-height:125%;writing-mode:lr-tb;text-anchor:start;font-family:Signika;-inkscape-font-specification:Signika Light;fill:#ffffff"
       id="path2991" />
    <path
       d="m 149.16762,43.236961 c 0.007,-0.524739 -0.10626,-0.966233 -0.3405,-1.324483 -0.23425,-0.35824 -0.63274,-0.544737 -1.19548,-0.559493 -0.38375,0.0045 -0.75625,0.08551 -1.11749,0.242997 -0.36125,0.157504 -0.67674,0.364501 -0.94649,0.620992 l 0,-3.09596 c 0.006,-0.198239 -0.0235,-0.347737 -0.087,-0.448495 -0.0635,-0.10074 -0.19449,-0.151239 -0.39299,-0.151497 l -0.324,0 -0.072,0.072 0,8.747887 c 0.11799,0.024 0.26599,0.036 0.44399,0.036 0.0787,0 0.15525,-0.003 0.2295,-0.009 0.0742,-0.006 0.14174,-0.015 0.20249,-0.027 l 0,-4.247945 c 0.243,-0.274742 0.53099,-0.496239 0.86399,-0.664492 0.333,-0.168243 0.65699,-0.254741 0.97199,-0.259496 0.34149,-0.0032 0.57649,0.102253 0.70499,0.316495 0.1285,0.214252 0.18949,0.556748 0.183,1.027487 l 0,3.311958 c -0.002,0.197747 0.032,0.345245 0.102,0.442494 0.07,0.09725 0.18799,0.145748 0.35399,0.145498 0.1045,-5e-4 0.20749,-0.0175 0.309,-0.051 0.10149,-0.0335 0.18649,-0.0805 0.255,-0.140998 -0.0533,-0.133248 -0.0908,-0.286746 -0.1125,-0.460495 -0.0218,-0.173747 -0.0323,-0.360244 -0.0315,-0.559492 z"
       style="font-weight:300;text-align:start;line-height:125%;writing-mode:lr-tb;text-anchor:start;font-family:Signika;-inkscape-font-specification:Signika Light;fill:#ffffff"
       id="path2993" />
    <path
       d="m 155.77868,44.400946 c 0.004,-0.48224 -0.058,-0.930734 -0.186,-1.345483 -0.128,-0.41474 -0.346,-0.782235 -0.65399,-1.102486 -0.42,-0.431988 -0.97199,-0.647985 -1.65598,-0.647991 -0.67399,6e-6 -1.22198,0.216003 -1.64398,0.647991 -0.30799,0.320251 -0.52599,0.687746 -0.65399,1.102486 -0.128,0.414749 -0.19,0.863243 -0.186,1.345483 -0.004,0.482246 0.058,0.93074 0.186,1.345483 0.128,0.414746 0.346,0.78224 0.65399,1.102485 0.42199,0.421995 0.96999,0.633992 1.64398,0.635992 0.68399,-0.002 1.23598,-0.213997 1.65598,-0.635992 0.30799,-0.320245 0.52599,-0.687739 0.65399,-1.102486 0.12799,-0.414742 0.18999,-0.863236 0.186,-1.345482 z m -4.05595,0 c -0.01,-0.614489 0.1025,-1.161481 0.336,-1.640979 0.23349,-0.479489 0.64549,-0.732485 1.23598,-0.75899 0.58524,0.02651 0.99573,0.279501 1.23148,0.75899 0.23575,0.479498 0.34925,1.02649 0.3405,1.640979 0.009,0.619244 -0.10475,1.165737 -0.34049,1.639479 -0.23576,0.473744 -0.64625,0.723241 -1.23149,0.74849 -0.59049,-0.02525 -1.00249,-0.274746 -1.23598,-0.74849 -0.2335,-0.473742 -0.3455,-1.020235 -0.336,-1.639479 z"
       style="font-weight:300;text-align:start;line-height:125%;writing-mode:lr-tb;text-anchor:start;font-family:Signika;-inkscape-font-specification:Signika Light;fill:#ffffff"
       id="path2995" />
    <path
       d="m 161.96505,43.224961 c 0.007,-0.524239 -0.10875,-0.963733 -0.34649,-1.318483 -0.23775,-0.35474 -0.63825,-0.539237 -1.20149,-0.553493 -0.38374,0.004 -0.75624,0.08301 -1.11748,0.236997 -0.36125,0.154004 -0.67674,0.359001 -0.94649,0.614992 l 0,-0.167998 c 0.005,-0.199242 -0.0235,-0.35274 -0.087,-0.460494 -0.0635,-0.107743 -0.1945,-0.162242 -0.39299,-0.163498 l -0.336,0 -0.072,0.072 0,5.855925 c 0.122,0.024 0.274,0.036 0.456,0.036 0.0787,0 0.15524,-0.003 0.22949,-0.009 0.0743,-0.006 0.14175,-0.015 0.2025,-0.027 l 0,-4.259945 c 0.24275,-0.274742 0.53124,-0.496239 0.86549,-0.664492 0.33424,-0.168243 0.66174,-0.254741 0.98249,-0.259496 0.33574,-0.0032 0.56724,0.102254 0.69449,0.316496 0.12724,0.214251 0.18774,0.556747 0.1815,1.027486 l 0,3.323958 c -0.002,0.197747 0.032,0.345245 0.10199,0.442494 0.07,0.09725 0.188,0.145748 0.354,0.145498 0.11049,-5e-4 0.21649,-0.0175 0.318,-0.051 0.10149,-0.0335 0.18349,-0.0805 0.24599,-0.140998 -0.0528,-0.133248 -0.0882,-0.286746 -0.1065,-0.460495 -0.0183,-0.173747 -0.0268,-0.360244 -0.0255,-0.559492 z"
       style="font-weight:300;text-align:start;line-height:125%;writing-mode:lr-tb;text-anchor:start;font-family:Signika;-inkscape-font-specification:Signika Light;fill:#ffffff"
       id="path2997" />
    <path
       d="m 168.22812,44.664943 c 0.0235,-0.140246 0.0395,-0.270744 0.048,-0.391496 0.008,-0.120745 0.0125,-0.254243 0.012,-0.400494 -5.1e-4,-0.726487 -0.1945,-1.331479 -0.58199,-1.814977 -0.3875,-0.483488 -0.96549,-0.734485 -1.73398,-0.75299 -0.77199,0.01751 -1.36398,0.309502 -1.77598,0.875988 -0.41199,0.566498 -0.61999,1.302487 -0.62399,2.207972 -0.0132,0.848241 0.15725,1.569731 0.51149,2.164472 0.35425,0.594742 0.97174,0.905238 1.85248,0.931488 0.41349,-0.004 0.81049,-0.068 1.19098,-0.191997 0.3805,-0.123999 0.71149,-0.283996 0.99299,-0.479994 -0.0135,-0.100498 -0.0495,-0.208497 -0.108,-0.323996 -0.0585,-0.115498 -0.1305,-0.211496 -0.21599,-0.287996 -0.263,0.146999 -0.538,0.266997 -0.82499,0.359995 -0.287,0.093 -0.592,0.140999 -0.91499,0.143998 -0.5505,-0.01 -0.94349,-0.199997 -1.17899,-0.569993 -0.23549,-0.369993 -0.35849,-0.859986 -0.36899,-1.46998 z m -2.25597,-2.675966 c 0.50524,0.01425 0.86873,0.195753 1.09049,0.544493 0.22174,0.34875 0.33024,0.779244 0.32549,1.291483 l 0,0.155998 -2.87996,0 c 0.031,-0.602738 0.16999,-1.083231 0.41699,-1.441481 0.247,-0.358241 0.59599,-0.541738 1.04699,-0.550493 z"
       style="font-weight:300;text-align:start;line-height:125%;writing-mode:lr-tb;text-anchor:start;font-family:Signika;-inkscape-font-specification:Signika Light;fill:#ffffff"
       id="path2999" />
    <path
       d="m 173.25501,43.212961 c -0.0188,0.063 -0.0352,0.132002 -0.0495,0.206997 -0.0143,0.075 -0.0217,0.138002 -0.0225,0.188998 2.5e-4,0.149252 0.0358,0.25875 0.1065,0.328496 0.0707,0.06975 0.17524,0.104252 0.31349,0.103499 l 1.30799,0 c -0.01,0.202 -0.014,0.445997 -0.012,0.73199 l 0,1.631979 c -0.2155,0.0745 -0.4715,0.138499 -0.76799,0.191998 -0.2965,0.0535 -0.6365,0.0815 -1.01999,0.084 -0.81649,-0.0018 -1.43048,-0.286246 -1.84198,-0.85349 -0.41149,-0.567241 -0.61749,-1.406729 -0.61799,-2.518467 0.0217,-1.289478 0.26325,-2.196466 0.72449,-2.720965 0.46124,-0.524486 1.01174,-0.777483 1.65148,-0.75899 0.44549,0.0025 0.85949,0.07251 1.24199,0.209997 0.38249,0.137505 0.72448,0.327503 1.02598,0.569993 0.1,-0.06774 0.19699,-0.163241 0.291,-0.286497 0.094,-0.123241 0.16099,-0.263739 0.201,-0.421494 -0.34576,-0.284239 -0.75825,-0.504736 -1.23749,-0.661492 -0.47925,-0.156739 -0.96674,-0.236238 -1.46248,-0.238497 -0.87699,-0.01599 -1.65498,0.310004 -2.33397,0.977988 -0.67899,0.667998 -1.03699,1.773982 -1.07399,3.317957 -0.006,0.701476 0.0924,1.36917 0.29422,2.003085 0.20185,0.633919 0.5417,1.153171 1.01955,1.557758 0.47784,0.404587 1.1279,0.613622 1.95019,0.627103 0.56149,-0.0033 1.08548,-0.05375 1.57198,-0.151498 0.48649,-0.09775 0.91448,-0.223247 1.28399,-0.376495 l 0,-3.10796 c 0.003,-0.215493 -0.051,-0.375491 -0.162,-0.479994 -0.11101,-0.104495 -0.297,-0.156494 -0.55799,-0.155998 z"
       style="font-weight:300;text-align:start;line-height:125%;writing-mode:lr-tb;text-anchor:start;font-family:Signika;-inkscape-font-specification:Signika Light;fill:#ffffff"
       id="path3001" />
    <path
       d="m 182.01162,46.968913 c -0.14525,-0.142998 -0.23875,-0.309996 -0.2805,-0.500994 -0.0418,-0.190996 -0.0602,-0.411993 -0.0555,-0.662991 l 0,-2.471968 c 5e-4,-0.650487 -0.1535,-1.14648 -0.46199,-1.487981 -0.3085,-0.34149 -0.77449,-0.513488 -1.39798,-0.515994 -0.428,0.007 -0.84999,0.06801 -1.26599,0.182998 -0.41599,0.115004 -0.77799,0.242003 -1.08598,0.380995 0.002,0.125004 0.0335,0.253002 0.093,0.383995 0.0595,0.131003 0.13249,0.235002 0.21899,0.311996 0.31325,-0.141243 0.63474,-0.257742 0.96449,-0.349495 0.32974,-0.09174 0.66024,-0.139243 0.99149,-0.142498 0.33374,-0.0052 0.59624,0.08625 0.78749,0.274496 0.19124,0.188252 0.28874,0.504748 0.2925,0.949488 l 0,0.599992 c -0.21851,-0.04125 -0.4415,-0.06975 -0.669,-0.0855 -0.2275,-0.01575 -0.44449,-0.02325 -0.65099,-0.0225 -0.67624,-0.0027 -1.21673,0.152752 -1.62148,0.466495 -0.40474,0.313748 -0.61224,0.802241 -0.62249,1.465481 -7.5e-4,0.445245 0.14175,0.84174 0.4275,1.189484 0.28574,0.347746 0.71923,0.531243 1.30048,0.550493 0.39724,-0.0105 0.75474,-0.106498 1.07248,-0.287996 0.31775,-0.181498 0.58824,-0.385495 0.81149,-0.611992 0.046,0.198498 0.128,0.368495 0.246,0.509993 0.11799,0.141498 0.28399,0.251497 0.49799,0.329996 0.092,-0.046 0.175,-0.112999 0.249,-0.200998 0.074,-0.088 0.12699,-0.172997 0.159,-0.254996 z m -2.91596,-0.239997 c -0.30725,-0.0075 -0.54175,-0.109498 -0.70349,-0.305996 -0.16175,-0.196497 -0.24325,-0.442493 -0.2445,-0.737991 0.005,-0.385992 0.12725,-0.681988 0.36749,-0.887988 0.24025,-0.205995 0.56975,-0.309993 0.98849,-0.311996 0.218,-2.47e-4 0.43899,0.0063 0.66299,0.0195 0.224,0.01325 0.43899,0.03475 0.645,0.0645 l 0,1.199984 c -0.25751,0.323497 -0.5375,0.564494 -0.83999,0.722991 -0.3025,0.158499 -0.5945,0.237498 -0.87599,0.236997 z"
       style="font-weight:300;text-align:start;line-height:125%;writing-mode:lr-tb;text-anchor:start;font-family:Signika;-inkscape-font-specification:Signika Light;fill:#ffffff"
       id="path3003" />
    <path
       d="m 188.38249,44.328947 c -0.002,-0.908235 -0.1725,-1.635725 -0.51299,-2.182472 -0.3405,-0.546737 -0.8415,-0.827233 -1.50298,-0.841489 -0.36775,0.005 -0.70025,0.08201 -0.99749,0.230997 -0.29725,0.149004 -0.54875,0.340001 -0.75449,0.572992 l 0,-0.06 c 0.005,-0.204992 -0.026,-0.36199 -0.093,-0.470994 -0.067,-0.108993 -0.2,-0.163992 -0.39899,-0.164998 l -0.312,0 -0.072,0.072 0,8.363893 0.072,0.072 0.324,0 c 0.19849,-2.53e-4 0.32949,-0.05075 0.39299,-0.151498 0.0635,-0.100752 0.0925,-0.250249 0.087,-0.448494 l 0,-2.37597 c 0.22774,0.151748 0.46824,0.271247 0.72149,0.358495 0.25324,0.08725 0.52074,0.131749 0.80249,0.133499 0.55024,0.007 1.05473,-0.237997 1.51348,-0.734991 0.45874,-0.496992 0.70223,-1.287981 0.73049,-2.372969 z m -2.18397,-2.243971 c 0.34224,-0.007 0.63874,0.166003 0.88949,0.518993 0.25074,0.353 0.38224,0.927992 0.39449,1.724978 -0.0145,0.821991 -0.1625,1.418983 -0.44399,1.790977 -0.2815,0.371996 -0.6095,0.554993 -0.98399,0.548993 -0.27675,-0.0052 -0.53625,-0.06075 -0.77849,-0.166498 -0.24225,-0.105748 -0.46275,-0.230246 -0.66149,-0.373495 l 0,-3.083961 c 0.20399,-0.307741 0.44699,-0.544238 0.72899,-0.709491 0.28199,-0.165242 0.56699,-0.248741 0.85499,-0.250496 z"
       style="font-weight:300;text-align:start;line-height:125%;writing-mode:lr-tb;text-anchor:start;font-family:Signika;-inkscape-font-specification:Signika Light;fill:#ffffff"
       id="path3005" />
  </g>
</svg>
